#!OML:ASF G:\ViconDB\ViconDB\414\test\team2\shane.ASF
:FULLY-SPECIFIED
:DEGREES
142
root 4.17571 16.072 -13.7379 -7.29152 4.67876 -9.15675
lowerback 5.70261 -2.20901 3.86178
upperback 5.98094 -2.95154 6.8333
thorax 3.19892 -1.49252 5.03861
lowerneck -15.7823 -4.36903 -6.42403
upperneck 11.7351 -5.58325 7.21715
head 6.54559 -2.39481 2.78967
rclavicle 1.98785e-014 1.19271e-014
rhumerus -24.2851 -8.06031 -85.1561
rradius 26.1852
rwrist 39.6881
rhand -32.1155 -17.3231
rfingers 7.12502
rthumb -5.36027 -47.2353
lclavicle 1.98785e-014 1.19271e-014
lhumerus -28.6951 -22.4583 98.3941
lradius 19.9303
lwrist -14.1869
lhand -39.7646 9.77871
lfingers 7.12502
lthumb -12.7408 39.37
rfemur -6.89089 -17.2693 27.2621
rtibia 46.386
rfoot -30.6787 0.1699
rtoes -7.95517
lfemur -6.65966 3.44607 1.64772
ltibia 75.2062
lfoot -19.5301 -7.2391
ltoes -11.4106
143
root 4.15281 16.0849 -13.5839 -7.42027 4.61167 -9.21776
lowerback 5.71503 -1.99135 4.05357
upperback 6.08575 -2.6575 6.70031
thorax 3.26783 -1.33292 4.78071
lowerneck -15.7345 -4.49111 -6.62529
upperneck 11.3972 -5.71347 7.38352
head 6.45 -2.45693 2.86211
rclavicle 1.98785e-014 1.19271e-014
rhumerus -24.2851 -8.06031 -85.1561
rradius 26.1852
rwrist 39.6881
rhand -32.1155 -17.3231
rfingers 7.12502
rthumb -5.36027 -47.2353
lclavicle 1.98785e-014 1.19271e-014
lhumerus -28.6951 -22.4583 98.3941
lradius 19.9303
lwrist -14.1869
lhand -39.7646 9.77871
lfingers 7.12502
lthumb -12.7408 39.37
rfemur -5.68495 -17.3324 27.2138
rtibia 45.5377
rfoot -30.8426 0.356823
rtoes -7.78766
lfemur -8.12863 3.92676 1.54928
ltibia 75.2136
lfoot -20.4057 -6.18899
ltoes -11.1675
144
root 4.13644 16.1046 -13.4326 -7.58394 4.52786 -9.45951
lowerback 5.34273 -1.89238 5.6961
upperback 6.32627 -2.50168 5.58857
thorax 3.59938 -1.15282 2.67321
lowerneck -15.5221 -4.44793 -5.44048
upperneck 10.9965 -5.96786 7.79861
head 6.28539 -2.50361 2.7789
rclavicle 1.98785e-014 1.19271e-014
rhumerus -24.2851 -8.06031 -85.1561
rradius 26.1852
rwrist 39.6881
rhand -32.1155 -17.3231
rfingers 7.12502
rthumb -5.36027 -47.2353
lclavicle -8.44835e-015 -4.77083e-014
lhumerus -30.6185 -24.1212 97.3111
lradius 19.3998
lwrist -13.9831
lhand -39.9079 9.67143
lfingers 7.12502
lthumb -12.879 39.2541
rfemur -4.42738 -17.4903 27.3096
rtibia 44.5703
rfoot -30.8732 0.569428
rtoes -7.77568
lfemur -9.51637 4.07409 1.50948
ltibia 74.9208
lfoot -21.3158 -5.18155
ltoes -11.0727
145
root 4.11778 16.1286 -13.2825 -7.61066 4.41003 -9.63777
lowerback 5.7994 -1.48685 4.9356
upperback 6.12529 -1.94006 6.40201
thorax 3.18279 -0.928697 3.95061
lowerneck -15.6107 -4.80758 -6.78253
upperneck 11.04 -6.11928 7.54232
head 6.35531 -2.65259 2.89566
rclavicle 4.01545e-014 -2.38542e-015
rhumerus -20.9422 -5.58676 -86.8464
rradius 26.6659
rwrist 39.4694
rhand -32.8094 -18.0355
rfingers 7.12502
rthumb -6.03018 -47.9297
lclavicle 4.01545e-014 -2.38542e-015
lhumerus -31.3026 -22.9839 98.5653
lradius 18.8087
lwrist -14.8868
lhand -39.8014 9.64336
lfingers 7.12502
lthumb -12.7764 39.2324
rfemur -3.27697 -17.4646 27.4778
rtibia 43.4877
rfoot -30.7628 0.405762
rtoes -8.779
lfemur -10.9873 4.41202 1.44035
ltibia 74.3686
lfoot -22.0223 -4.52833
ltoes -10.9214
146
root 4.10445 16.1661 -13.1297 -7.67106 4.39073 -9.52211
lowerback 5.85074 -1.20682 5.04937
upperback 6.05409 -1.54472 6.12123
thorax 3.05177 -0.719597 3.5786
lowerneck -15.3788 -4.95935 -6.84092
upperneck 10.8862 -6.34845 7.74653
head 6.29394 -2.75617 2.9494
rclavicle -4.77083e-015 -7.39479e-014
rhumerus -20.1538 -5.42959 -87.2636
rradius 26.7916
rwrist 39.8839
rhand -32.7471 -17.818
rfingers 7.12502
rthumb -5.97009 -47.7139
lclavicle -4.77083e-015 -7.39479e-014
lhumerus -32.3754 -23.0779 98.5316
lradius 18.4601
lwrist -15.4317
lhand -39.8187 9.70017
lfingers 7.12502
lthumb -12.793 39.2882
rfemur -2.02678 -17.495 27.2187
rtibia 42.2975
rfoot -30.538 0.670138
rtoes -8.3224
lfemur -12.2272 4.23495 0.844815
ltibia 73.4828
lfoot -22.7525 -3.80858
ltoes -9.99524
147
root 4.08489 16.2051 -12.9782 -7.754 4.39013 -9.47917
lowerback 5.93675 -0.981917 5.0801
upperback 6.09617 -1.23483 5.96588
thorax 3.03408 -0.558767 3.38911
lowerneck -15.6284 -5.14318 -7.14521
upperneck 10.9375 -6.55535 7.98276
head 6.38673 -2.84383 3.04785
rclavicle -2.10712e-014 2.38542e-015
rhumerus -19.1265 -4.60568 -87.7878
rradius 26.901
rwrist 39.4199
rhand -33.0726 -18.1787
rfingers 7.12502
rthumb -6.28428 -48.0654
lclavicle -2.10712e-014 2.38542e-015
lhumerus -32.9879 -22.649 98.3446
lradius 18.1356
lwrist -15.6857
lhand -39.3168 9.55647
lfingers 7.12502
lthumb -12.3091 39.1742
rfemur -0.704043 -17.3528 27.151
rtibia 40.9568
rfoot -30.2119 0.599515
rtoes -8.65393
lfemur -13.3954 4.21151 0.438757
ltibia 72.3195
lfoot -23.4907 -3.31834
ltoes -10.1547
148
root 4.07057 16.2476 -12.8269 -7.87389 4.31273 -9.17076
lowerback 6.06048 -0.656751 4.90513
upperback 6.07654 -0.788097 5.66197
thorax 2.92766 -0.334818 3.15298
lowerneck -15.4844 -5.3279 -7.10493
upperneck 10.8186 -6.82843 8.05921
head 6.3479 -2.97241 3.03783
rclavicle -3.37934e-015 -1.66979e-014
rhumerus -18.4429 -4.41519 -88.1738
rradius 27.0856
rwrist 39.6547
rhand -32.8927 -18.3355
rfingers 7.12502
rthumb -6.11066 -48.2274
lclavicle -3.37934e-015 -1.66979e-014
lhumerus -33.9738 -22.7947 98.4138
lradius 18.073
lwrist -15.1359
lhand -39.0734 9.7591
lfingers 7.12502
lthumb -12.0744 39.3907
rfemur 0.742136 -17.0369 26.7892
rtibia 39.5088
rfoot -29.759 0.397482
rtoes -9.8077
lfemur -14.3505 4.18343 -0.317187
ltibia 70.8805
lfoot -24.1752 -2.99222
ltoes -10.1491
149
root 4.05336 16.3017 -12.6827 -7.99955 4.39928 -8.92036
lowerback 6.28988 -0.369602 4.78429
upperback 6.01361 -0.377971 5.31137
thorax 2.71981 -0.127491 2.83814
lowerneck -15.4024 -5.53299 -7.21751
upperneck 10.8487 -7.14975 8.44973
head 6.38946 -3.10287 3.14731
rclavicle 8.05078e-015 -5.08889e-014
rhumerus -17.709 -4.45812 -88.679
rradius 27.1397
rwrist 39.6063
rhand -33.0349 -18.0763
rfingers 7.12502
rthumb -6.24791 -47.9642
lclavicle 8.05078e-015 -5.08889e-014
lhumerus -35.0035 -22.9302 98.2395
lradius 18.0114
lwrist -15.2728
lhand -38.6826 9.83906
lfingers 7.12502
lthumb -11.6976 39.4925
rfemur 2.22614 -16.8092 26.5333
rtibia 37.8822
rfoot -29.2455 0.116597
rtoes -10.3476
lfemur -15.2474 3.72251 -1.07145
ltibia 69.1843
lfoot -24.6886 -2.59851
ltoes -9.86194
150
root 4.04224 16.3575 -12.5249 -8.11141 4.16445 -8.52783
lowerback 6.29879 -0.0133341 4.5049
upperback 6.05733 0.0886601 4.99497
thorax 2.74943 0.104111 2.64553
lowerneck -15.4398 -5.73963 -7.35594
upperneck 10.9008 -7.44747 8.74371
head 6.45464 -3.22726 3.22991
rclavicle 1.46107e-014 3.61788e-014
rhumerus -17.193 -4.35946 -88.9732
rradius 27.2777
rwrist 40.9269
rhand -33.0039 -18.1341
rfingers 7.12502
rthumb -6.218 -48.0228
lclavicle 1.46107e-014 3.61788e-014
lhumerus -35.607 -22.2943 97.8038
lradius 17.7672
lwrist -15.7176
lhand -37.9884 10.0104
lfingers 7.12502
lthumb -11.0281 39.7007
rfemur 3.8074 -16.1249 26.1564
rtibia 36.1434
rfoot -28.6586 -0.029602
rtoes -10.4319
lfemur -15.845 3.81651 -1.88075
ltibia 67.2364
lfoot -25.304 -2.42643
ltoes -10.1838
151
root 4.03449 16.4214 -12.366 -8.19886 3.95412 -8.19942
lowerback 6.32985 0.322967 4.43848
upperback 6.0463 0.543277 4.61471
thorax 2.71452 0.337627 2.26782
lowerneck -15.4117 -5.98491 -7.61042
upperneck 10.9949 -7.81264 9.24176
head 6.54346 -3.3738 3.39037
rclavicle -4.12478e-015 -2.66371e-014
rhumerus -16.7706 -3.5038 -89.4974
rradius 27.735
rwrist 40.0857
rhand -32.9799 -18.2606
rfingers 7.12502
rthumb -6.19478 -48.1501
lclavicle -4.12478e-015 -2.66371e-014
lhumerus -36.4407 -22.031 97.4982
lradius 17.7671
lwrist -15.0496
lhand -37.5138 10.2633
lfingers 7.12502
lthumb -10.5703 39.9775
rfemur 5.40904 -15.775 25.772
rtibia 34.2527
rfoot -27.8182 -0.00624668
rtoes -10.8229
lfemur -16.3817 3.68932 -2.61028
ltibia 65.1025
lfoot -25.7714 -2.57193
ltoes -9.26703
152
root 4.03328 16.479 -12.2067 -8.32926 3.63968 -7.8995
lowerback 5.70367 0.755882 3.57732
upperback 6.4508 1.01527 4.9515
thorax 3.46143 0.541374 3.10317
lowerneck -15.6797 -6.28533 -8.54245
upperneck 10.9463 -8.006 9.32114
head 6.63083 -3.49352 3.53781
rclavicle -4.12478e-015 -2.66371e-014
rhumerus -16.7706 -3.5038 -89.4974
rradius 27.735
rwrist 40.0857
rhand -32.9799 -18.2606
rfingers 7.12502
rthumb -6.19478 -48.1501
lclavicle -7.7526e-015 -5.12864e-014
lhumerus -36.3243 -20.847 97.7393
lradius 17.4612
lwrist -15.0775
lhand -37.2608 9.33734
lfingers 7.12502
lthumb -10.3262 39.0638
rfemur 7.08141 -15.2515 25.4224
rtibia 32.3243
rfoot -26.8064 -0.180625
rtoes -11.5582
lfemur -16.736 3.61454 -3.31984
ltibia 62.7925
lfoot -26.1975 -2.65741
ltoes -9.35114
